<svg width="217" height="76" viewBox="0 0 217 76" fill="none" xmlns="http://www.w3.org/2000/svg">
<g clip-path="url(#clip0_404_131)">
<rect x="5.9375" y="4.75" width="19" height="19" fill="#7A7A7A"/>
<rect x="28.5" y="4.75" width="19" height="19" fill="#7A7A7A"/>
<rect x="51.0625" y="4.75" width="19" height="19" fill="#7A7A7A"/>
<rect x="5.9375" y="27.3125" width="19" height="19" fill="#D0D0D0"/>
<rect x="28.5" y="27.3125" width="19" height="19" fill="#7A7A7A"/>
<rect x="51.0625" y="27.3125" width="19" height="19" fill="#7A7A7A"/>
<rect x="5.9375" y="49.875" width="19" height="19" fill="#D0D0D0"/>
<rect x="28.5" y="49.875" width="19" height="19" fill="#D0D0D0"/>
<rect x="51.0625" y="49.875" width="19" height="19" fill="#7A7A7A"/>
<path d="M100.472 12.696C102.824 12.696 104.696 13.464 106.088 15C107.504 16.512 108.212 18.6 108.212 21.264V33H102.092V22.092C102.092 20.748 101.744 19.704 101.048 18.96C100.352 18.216 99.416 17.844 98.24 17.844C97.064 17.844 96.128 18.216 95.432 18.96C94.736 19.704 94.388 20.748 94.388 22.092V33H88.232V12.912H94.388V15.576C95.012 14.688 95.852 13.992 96.908 13.488C97.964 12.96 99.152 12.696 100.472 12.696ZM130.526 22.632C130.526 23.208 130.49 23.808 130.418 24.432H116.486C116.582 25.68 116.978 26.64 117.674 27.312C118.394 27.96 119.27 28.284 120.302 28.284C121.838 28.284 122.906 27.636 123.506 26.34H130.058C129.722 27.66 129.11 28.848 128.222 29.904C127.358 30.96 126.266 31.788 124.946 32.388C123.626 32.988 122.15 33.288 120.518 33.288C118.55 33.288 116.798 32.868 115.262 32.028C113.726 31.188 112.526 29.988 111.662 28.428C110.798 26.868 110.366 25.044 110.366 22.956C110.366 20.868 110.786 19.044 111.626 17.484C112.49 15.924 113.69 14.724 115.226 13.884C116.762 13.044 118.526 12.624 120.518 12.624C122.462 12.624 124.19 13.032 125.702 13.848C127.214 14.664 128.39 15.828 129.23 17.34C130.094 18.852 130.526 20.616 130.526 22.632ZM124.226 21.012C124.226 19.956 123.866 19.116 123.146 18.492C122.426 17.868 121.526 17.556 120.446 17.556C119.414 17.556 118.538 17.856 117.818 18.456C117.122 19.056 116.69 19.908 116.522 21.012H124.226ZM139.029 16.26C139.749 15.156 140.649 14.292 141.729 13.668C142.809 13.02 144.009 12.696 145.329 12.696V19.212H143.637C142.101 19.212 140.949 19.548 140.181 20.22C139.413 20.868 139.029 22.02 139.029 23.676V33H132.873V12.912H139.029V16.26ZM146.148 22.92C146.148 20.856 146.532 19.044 147.3 17.484C148.092 15.924 149.16 14.724 150.504 13.884C151.848 13.044 153.348 12.624 155.004 12.624C156.324 12.624 157.524 12.9 158.604 13.452C159.708 14.004 160.572 14.748 161.196 15.684V6.36H167.352V33H161.196V30.12C160.62 31.08 159.792 31.848 158.712 32.424C157.656 33 156.42 33.288 155.004 33.288C153.348 33.288 151.848 32.868 150.504 32.028C149.16 31.164 148.092 29.952 147.3 28.392C146.532 26.808 146.148 24.984 146.148 22.92ZM161.196 22.956C161.196 21.42 160.764 20.208 159.9 19.32C159.06 18.432 158.028 17.988 156.804 17.988C155.58 17.988 154.536 18.432 153.672 19.32C152.832 20.184 152.412 21.384 152.412 22.92C152.412 24.456 152.832 25.68 153.672 26.592C154.536 27.48 155.58 27.924 156.804 27.924C158.028 27.924 159.06 27.48 159.9 26.592C160.764 25.704 161.196 24.492 161.196 22.956ZM191.425 12.912L178.825 42.54H172.201L176.809 32.316L168.637 12.912H175.513L180.157 25.476L184.765 12.912H191.425ZM100.508 69L94.388 60.576V69H88.232V42.36H94.388V57.084L100.472 48.912H108.068L99.716 58.992L108.14 69H100.508ZM121.826 48.696C124.178 48.696 126.05 49.464 127.442 51C128.858 52.512 129.566 54.6 129.566 57.264V69H123.446V58.092C123.446 56.748 123.098 55.704 122.402 54.96C121.706 54.216 120.77 53.844 119.594 53.844C118.418 53.844 117.482 54.216 116.786 54.96C116.09 55.704 115.742 56.748 115.742 58.092V69H109.586V48.912H115.742V51.576C116.366 50.688 117.206 49.992 118.262 49.488C119.318 48.96 120.506 48.696 121.826 48.696ZM131.72 58.92C131.72 56.856 132.104 55.044 132.872 53.484C133.664 51.924 134.732 50.724 136.076 49.884C137.42 49.044 138.92 48.624 140.576 48.624C141.992 48.624 143.228 48.912 144.284 49.488C145.364 50.064 146.192 50.82 146.768 51.756V48.912H152.924V69H146.768V66.156C146.168 67.092 145.328 67.848 144.248 68.424C143.192 69 141.956 69.288 140.54 69.288C138.908 69.288 137.42 68.868 136.076 68.028C134.732 67.164 133.664 65.952 132.872 64.392C132.104 62.808 131.72 60.984 131.72 58.92ZM146.768 58.956C146.768 57.42 146.336 56.208 145.472 55.32C144.632 54.432 143.6 53.988 142.376 53.988C141.152 53.988 140.108 54.432 139.244 55.32C138.404 56.184 137.984 57.384 137.984 58.92C137.984 60.456 138.404 61.68 139.244 62.592C140.108 63.48 141.152 63.924 142.376 63.924C143.6 63.924 144.632 63.48 145.472 62.592C146.336 61.704 146.768 60.492 146.768 58.956ZM155.253 58.956C155.253 56.868 155.673 55.044 156.513 53.484C157.377 51.924 158.565 50.724 160.077 49.884C161.613 49.044 163.365 48.624 165.333 48.624C167.853 48.624 169.953 49.284 171.633 50.604C173.337 51.924 174.453 53.784 174.981 56.184H168.429C167.877 54.648 166.809 53.88 165.225 53.88C164.097 53.88 163.197 54.324 162.525 55.212C161.853 56.076 161.517 57.324 161.517 58.956C161.517 60.588 161.853 61.848 162.525 62.736C163.197 63.6 164.097 64.032 165.225 64.032C166.809 64.032 167.877 63.264 168.429 61.728H174.981C174.453 64.08 173.337 65.928 171.633 67.272C169.929 68.616 167.829 69.288 165.333 69.288C163.365 69.288 161.613 68.868 160.077 68.028C158.565 67.188 157.377 65.988 156.513 64.428C155.673 62.868 155.253 61.044 155.253 58.956ZM189.65 69L183.53 60.576V69H177.374V42.36H183.53V57.084L189.614 48.912H197.21L188.858 58.992L197.282 69H189.65ZM206.9 69.288C205.148 69.288 203.588 68.988 202.22 68.388C200.852 67.788 199.772 66.972 198.98 65.94C198.188 64.884 197.744 63.708 197.648 62.412H203.732C203.804 63.108 204.128 63.672 204.704 64.104C205.28 64.536 205.988 64.752 206.828 64.752C207.596 64.752 208.184 64.608 208.592 64.32C209.024 64.008 209.24 63.612 209.24 63.132C209.24 62.556 208.94 62.136 208.34 61.872C207.74 61.584 206.768 61.272 205.424 60.936C203.984 60.6 202.784 60.252 201.824 59.892C200.864 59.508 200.036 58.92 199.34 58.128C198.644 57.312 198.296 56.22 198.296 54.852C198.296 53.7 198.608 52.656 199.232 51.72C199.88 50.76 200.816 50.004 202.04 49.452C203.288 48.9 204.764 48.624 206.468 48.624C208.988 48.624 210.968 49.248 212.408 50.496C213.872 51.744 214.712 53.4 214.928 55.464H209.24C209.144 54.768 208.832 54.216 208.304 53.808C207.8 53.4 207.128 53.196 206.288 53.196C205.568 53.196 205.016 53.34 204.632 53.628C204.248 53.892 204.056 54.264 204.056 54.744C204.056 55.32 204.356 55.752 204.956 56.04C205.58 56.328 206.54 56.616 207.836 56.904C209.324 57.288 210.536 57.672 211.472 58.056C212.408 58.416 213.224 59.016 213.92 59.856C214.64 60.672 215.012 61.776 215.036 63.168C215.036 64.344 214.7 65.4 214.028 66.336C213.38 67.248 212.432 67.968 211.184 68.496C209.96 69.024 208.532 69.288 206.9 69.288Z" fill="#C9C7B3"/>
</g>
<defs>
<clipPath id="clip0_404_131">
<rect width="217" height="76" fill="white"/>
</clipPath>
</defs>
</svg>
