<svg width="185" height="48" viewBox="0 0 185 48" fill="none" xmlns="http://www.w3.org/2000/svg">
<rect x="3.75" y="3" width="12" height="12" fill="#7A7A7A"/>
<rect x="18" y="3" width="12" height="12" fill="#7A7A7A"/>
<rect x="32.25" y="3" width="12" height="12" fill="#7A7A7A"/>
<rect x="3.75" y="17.25" width="12" height="12" fill="#D0D0D0"/>
<rect x="18" y="17.25" width="12" height="12" fill="#7A7A7A"/>
<rect x="32.25" y="17.25" width="12" height="12" fill="#7A7A7A"/>
<rect x="3.75" y="31.5" width="12" height="12" fill="#D0D0D0"/>
<rect x="18" y="31.5" width="12" height="12" fill="#D0D0D0"/>
<rect x="32.25" y="31.5" width="12" height="12" fill="#7A7A7A"/>
<path d="M53.3864 24.9545V30H50.9659V21.2727H53.2727V22.8125H53.375C53.5682 22.3049 53.892 21.9034 54.3466 21.608C54.8011 21.3087 55.3523 21.1591 56 21.1591C56.6061 21.1591 57.1345 21.2917 57.5852 21.5568C58.036 21.822 58.3864 22.2008 58.6364 22.6932C58.8864 23.1818 59.0114 23.7652 59.0114 24.4432V30H56.5909V24.875C56.5947 24.3409 56.4583 23.9242 56.1818 23.625C55.9053 23.322 55.5246 23.1705 55.0398 23.1705C54.714 23.1705 54.4261 23.2405 54.1761 23.3807C53.9299 23.5208 53.7367 23.7254 53.5966 23.9943C53.4602 24.2595 53.3902 24.5795 53.3864 24.9545ZM64.4963 30.1705C63.5986 30.1705 62.8259 29.9886 62.1781 29.625C61.5342 29.2576 61.038 28.7386 60.6895 28.0682C60.341 27.3939 60.1668 26.5966 60.1668 25.6761C60.1668 24.7784 60.341 23.9905 60.6895 23.3125C61.038 22.6345 61.5285 22.1061 62.1611 21.7273C62.7974 21.3485 63.5437 21.1591 64.3997 21.1591C64.9755 21.1591 65.5115 21.2519 66.0077 21.4375C66.5077 21.6193 66.9433 21.8939 67.3145 22.2614C67.6895 22.6288 67.9812 23.0909 68.1895 23.6477C68.3978 24.2008 68.502 24.8485 68.502 25.5909V26.2557H61.1327V24.7557H66.2236C66.2236 24.4072 66.1478 24.0985 65.9963 23.8295C65.8448 23.5606 65.6346 23.3504 65.3656 23.1989C65.1005 23.0436 64.7918 22.9659 64.4395 22.9659C64.0721 22.9659 63.7463 23.0511 63.4622 23.2216C63.1819 23.3883 62.9622 23.6136 62.8031 23.8977C62.644 24.178 62.5626 24.4905 62.5588 24.8352V26.2614C62.5588 26.6932 62.6384 27.0663 62.7974 27.3807C62.9603 27.6951 63.1895 27.9375 63.4849 28.108C63.7804 28.2784 64.1308 28.3636 64.5361 28.3636C64.805 28.3636 65.0512 28.3258 65.2747 28.25C65.4982 28.1742 65.6895 28.0606 65.8486 27.9091C66.0077 27.7576 66.1289 27.572 66.2122 27.3523L68.4509 27.5C68.3372 28.0379 68.1043 28.5076 67.752 28.9091C67.4035 29.3068 66.9527 29.6174 66.3997 29.8409C65.8505 30.0606 65.216 30.1705 64.4963 30.1705ZM69.6815 30V21.2727H72.0281V22.7955H72.119C72.2781 22.2538 72.5452 21.8447 72.9202 21.5682C73.2952 21.2879 73.727 21.1477 74.2156 21.1477C74.3368 21.1477 74.4675 21.1553 74.6077 21.1705C74.7478 21.1856 74.8709 21.2064 74.977 21.233V23.3807C74.8634 23.3466 74.7062 23.3163 74.5054 23.2898C74.3046 23.2633 74.1209 23.25 73.9543 23.25C73.5982 23.25 73.28 23.3277 72.9997 23.483C72.7232 23.6345 72.5035 23.8466 72.3406 24.1193C72.1815 24.392 72.102 24.7064 72.102 25.0625V30H69.6815ZM78.6381 30.142C77.9752 30.142 77.3748 29.9716 76.8369 29.6307C76.3028 29.286 75.8786 28.7803 75.5642 28.1136C75.2536 27.4432 75.0983 26.6212 75.0983 25.6477C75.0983 24.6477 75.2593 23.8163 75.5812 23.1534C75.9032 22.4867 76.3312 21.9886 76.8653 21.6591C77.4032 21.3258 77.9922 21.1591 78.6324 21.1591C79.121 21.1591 79.5282 21.2424 79.854 21.4091C80.1835 21.572 80.4487 21.7765 80.6494 22.0227C80.854 22.2652 81.0093 22.5038 81.1153 22.7386H81.1892V18.3636H83.604V30H81.2176V28.6023H81.1153C81.0017 28.8447 80.8407 29.0852 80.6324 29.3239C80.4278 29.5587 80.1608 29.7538 79.8312 29.9091C79.5055 30.0644 79.1078 30.142 78.6381 30.142ZM79.4051 28.2159C79.7953 28.2159 80.1248 28.1098 80.3937 27.8977C80.6665 27.6818 80.8748 27.3807 81.0187 26.9943C81.1665 26.608 81.2403 26.1553 81.2403 25.6364C81.2403 25.1174 81.1684 24.6667 81.0244 24.2841C80.8805 23.9015 80.6722 23.6061 80.3994 23.3977C80.1267 23.1894 79.7953 23.0852 79.4051 23.0852C79.0074 23.0852 78.6722 23.1932 78.3994 23.4091C78.1267 23.625 77.9203 23.9242 77.7801 24.3068C77.64 24.6894 77.5699 25.1326 77.5699 25.6364C77.5699 26.1439 77.64 26.5928 77.7801 26.983C77.9241 27.3693 78.1305 27.6723 78.3994 27.892C78.6722 28.108 79.0074 28.2159 79.4051 28.2159ZM86.6884 33.2727C86.3815 33.2727 86.0937 33.2481 85.8247 33.1989C85.5596 33.1534 85.3399 33.0947 85.1656 33.0227L85.7111 31.2159C85.9952 31.303 86.2509 31.3504 86.4781 31.358C86.7092 31.3655 86.9081 31.3125 87.0747 31.1989C87.2452 31.0852 87.3834 30.892 87.4895 30.6193L87.6315 30.25L84.5009 21.2727H87.0463L88.8531 27.6818H88.944L90.7679 21.2727H93.3304L89.9384 30.9432C89.7755 31.4129 89.5539 31.822 89.2736 32.1705C88.9971 32.5227 88.6467 32.7936 88.2224 32.983C87.7982 33.1761 87.2868 33.2727 86.6884 33.2727ZM96.3622 27.4886L96.3679 24.5852H96.7202L99.5156 21.2727H102.294L98.5384 25.6591H97.9645L96.3622 27.4886ZM94.169 30V18.3636H96.5895V30H94.169ZM99.6236 30L97.0554 26.1989L98.669 24.4886L102.459 30H99.6236ZM105.502 24.9545V30H103.082V21.2727H105.388V22.8125H105.491C105.684 22.3049 106.008 21.9034 106.462 21.608C106.917 21.3087 107.468 21.1591 108.116 21.1591C108.722 21.1591 109.25 21.2917 109.701 21.5568C110.152 21.822 110.502 22.2008 110.752 22.6932C111.002 23.1818 111.127 23.7652 111.127 24.4432V30H108.707V24.875C108.71 24.3409 108.574 23.9242 108.297 23.625C108.021 23.322 107.64 23.1705 107.155 23.1705C106.83 23.1705 106.542 23.2405 106.292 23.3807C106.046 23.5208 105.852 23.7254 105.712 23.9943C105.576 24.2595 105.506 24.5795 105.502 24.9545ZM115.123 30.1648C114.566 30.1648 114.07 30.0682 113.635 29.875C113.199 29.678 112.854 29.3883 112.601 29.0057C112.351 28.6193 112.226 28.1383 112.226 27.5625C112.226 27.0777 112.315 26.6705 112.493 26.3409C112.671 26.0114 112.913 25.7462 113.22 25.5455C113.527 25.3447 113.875 25.1932 114.265 25.0909C114.659 24.9886 115.072 24.9167 115.504 24.875C116.012 24.822 116.421 24.7727 116.731 24.7273C117.042 24.678 117.267 24.6061 117.407 24.5114C117.548 24.4167 117.618 24.2765 117.618 24.0909V24.0568C117.618 23.697 117.504 23.4186 117.277 23.2216C117.053 23.0246 116.735 22.9261 116.322 22.9261C115.887 22.9261 115.54 23.0227 115.282 23.2159C115.025 23.4053 114.854 23.6439 114.771 23.9318L112.532 23.75C112.646 23.2197 112.87 22.7614 113.203 22.375C113.536 21.9848 113.966 21.6856 114.493 21.4773C115.023 21.2652 115.637 21.1591 116.334 21.1591C116.818 21.1591 117.282 21.2159 117.726 21.3295C118.173 21.4432 118.568 21.6193 118.913 21.858C119.262 22.0966 119.536 22.4034 119.737 22.7784C119.938 23.1496 120.038 23.5947 120.038 24.1136V30H117.743V28.7898H117.674C117.534 29.0625 117.347 29.303 117.112 29.5114C116.877 29.7159 116.595 29.8769 116.265 29.9943C115.936 30.108 115.555 30.1648 115.123 30.1648ZM115.816 28.4943C116.173 28.4943 116.487 28.4242 116.76 28.2841C117.032 28.1402 117.246 27.947 117.402 27.7045C117.557 27.4621 117.635 27.1875 117.635 26.8807V25.9545C117.559 26.0038 117.455 26.0492 117.322 26.0909C117.193 26.1288 117.048 26.1648 116.885 26.1989C116.722 26.2292 116.559 26.2576 116.396 26.2841C116.233 26.3068 116.085 26.3277 115.953 26.3466C115.669 26.3883 115.421 26.4545 115.209 26.5455C114.996 26.6364 114.832 26.7595 114.714 26.9148C114.597 27.0663 114.538 27.2557 114.538 27.483C114.538 27.8125 114.657 28.0644 114.896 28.2386C115.138 28.4091 115.445 28.4943 115.816 28.4943ZM125.459 30.1705C124.565 30.1705 123.796 29.9811 123.152 29.6023C122.512 29.2197 122.02 28.6894 121.675 28.0114C121.334 27.3333 121.164 26.553 121.164 25.6705C121.164 24.7765 121.336 23.9924 121.681 23.3182C122.029 22.6402 122.523 22.1117 123.164 21.733C123.804 21.3504 124.565 21.1591 125.448 21.1591C126.209 21.1591 126.876 21.2973 127.448 21.5739C128.02 21.8504 128.472 22.2386 128.806 22.7386C129.139 23.2386 129.323 23.8258 129.357 24.5H127.073C127.008 24.0644 126.838 23.714 126.561 23.4489C126.289 23.1799 125.931 23.0455 125.488 23.0455C125.113 23.0455 124.785 23.1477 124.505 23.3523C124.228 23.553 124.012 23.8466 123.857 24.233C123.702 24.6193 123.624 25.0871 123.624 25.6364C123.624 26.1932 123.7 26.6667 123.851 27.0568C124.006 27.447 124.224 27.7443 124.505 27.9489C124.785 28.1534 125.113 28.2557 125.488 28.2557C125.764 28.2557 126.012 28.1989 126.232 28.0852C126.455 27.9716 126.639 27.8068 126.783 27.5909C126.931 27.3712 127.027 27.108 127.073 26.8011H129.357C129.319 27.4678 129.137 28.0549 128.811 28.5625C128.489 29.0663 128.044 29.4602 127.476 29.7443C126.908 30.0284 126.236 30.1705 125.459 30.1705ZM132.7 27.4886L132.705 24.5852H133.058L135.853 21.2727H138.632L134.876 25.6591H134.302L132.7 27.4886ZM130.507 30V18.3636H132.927V30H130.507ZM135.961 30L133.393 26.1989L135.007 24.4886L138.796 30H135.961ZM146.68 23.7614L144.464 23.8977C144.427 23.7083 144.345 23.5379 144.22 23.3864C144.095 23.2311 143.93 23.108 143.726 23.017C143.525 22.9223 143.285 22.875 143.004 22.875C142.629 22.875 142.313 22.9545 142.055 23.1136C141.798 23.2689 141.669 23.4773 141.669 23.7386C141.669 23.947 141.752 24.1231 141.919 24.267C142.086 24.411 142.372 24.5265 142.777 24.6136L144.357 24.9318C145.205 25.1061 145.838 25.3864 146.254 25.7727C146.671 26.1591 146.879 26.6667 146.879 27.2955C146.879 27.8674 146.711 28.3693 146.374 28.8011C146.04 29.233 145.582 29.5701 144.999 29.8125C144.419 30.0511 143.75 30.1705 142.993 30.1705C141.838 30.1705 140.917 29.9299 140.232 29.4489C139.55 28.964 139.15 28.3049 139.033 27.4716L141.413 27.3466C141.485 27.6989 141.66 27.9678 141.936 28.1534C142.213 28.3352 142.567 28.4261 142.999 28.4261C143.423 28.4261 143.764 28.3447 144.021 28.1818C144.283 28.0152 144.415 27.8011 144.419 27.5398C144.415 27.3201 144.322 27.1402 144.141 27C143.959 26.8561 143.679 26.7462 143.3 26.6705L141.788 26.3693C140.936 26.1989 140.302 25.9034 139.885 25.483C139.472 25.0625 139.266 24.5265 139.266 23.875C139.266 23.3144 139.417 22.8314 139.72 22.4261C140.027 22.0208 140.457 21.7083 141.01 21.4886C141.567 21.2689 142.218 21.1591 142.964 21.1591C144.067 21.1591 144.934 21.392 145.567 21.858C146.203 22.3239 146.574 22.9583 146.68 23.7614ZM149.418 30.1477C149.043 30.1477 148.721 30.0152 148.452 29.75C148.187 29.4811 148.055 29.1591 148.055 28.7841C148.055 28.4129 148.187 28.0947 148.452 27.8295C148.721 27.5644 149.043 27.4318 149.418 27.4318C149.782 27.4318 150.1 27.5644 150.373 27.8295C150.645 28.0947 150.782 28.4129 150.782 28.7841C150.782 29.0341 150.717 29.2633 150.589 29.4716C150.464 29.6761 150.299 29.8409 150.094 29.9659C149.89 30.0871 149.664 30.1477 149.418 30.1477ZM156.312 30.1705C155.418 30.1705 154.649 29.9811 154.005 29.6023C153.365 29.2197 152.873 28.6894 152.528 28.0114C152.187 27.3333 152.017 26.553 152.017 25.6705C152.017 24.7765 152.189 23.9924 152.534 23.3182C152.882 22.6402 153.377 22.1117 154.017 21.733C154.657 21.3504 155.418 21.1591 156.301 21.1591C157.062 21.1591 157.729 21.2973 158.301 21.5739C158.873 21.8504 159.325 22.2386 159.659 22.7386C159.992 23.2386 160.176 23.8258 160.21 24.5H157.926C157.861 24.0644 157.691 23.714 157.414 23.4489C157.142 23.1799 156.784 23.0455 156.341 23.0455C155.966 23.0455 155.638 23.1477 155.358 23.3523C155.081 23.553 154.865 23.8466 154.71 24.233C154.555 24.6193 154.477 25.0871 154.477 25.6364C154.477 26.1932 154.553 26.6667 154.704 27.0568C154.86 27.447 155.077 27.7443 155.358 27.9489C155.638 28.1534 155.966 28.2557 156.341 28.2557C156.617 28.2557 156.865 28.1989 157.085 28.0852C157.308 27.9716 157.492 27.8068 157.636 27.5909C157.784 27.3712 157.88 27.108 157.926 26.8011H160.21C160.172 27.4678 159.99 28.0549 159.664 28.5625C159.343 29.0663 158.897 29.4602 158.329 29.7443C157.761 30.0284 157.089 30.1705 156.312 30.1705ZM165.303 30.1705C164.42 30.1705 163.657 29.983 163.013 29.608C162.373 29.2292 161.879 28.7027 161.53 28.0284C161.182 27.3504 161.007 26.5644 161.007 25.6705C161.007 24.7689 161.182 23.9811 161.53 23.3068C161.879 22.6288 162.373 22.1023 163.013 21.7273C163.657 21.3485 164.42 21.1591 165.303 21.1591C166.185 21.1591 166.947 21.3485 167.587 21.7273C168.231 22.1023 168.727 22.6288 169.076 23.3068C169.424 23.9811 169.598 24.7689 169.598 25.6705C169.598 26.5644 169.424 27.3504 169.076 28.0284C168.727 28.7027 168.231 29.2292 167.587 29.608C166.947 29.983 166.185 30.1705 165.303 30.1705ZM165.314 28.2955C165.716 28.2955 166.051 28.1818 166.32 27.9545C166.589 27.7235 166.791 27.4091 166.928 27.0114C167.068 26.6136 167.138 26.161 167.138 25.6534C167.138 25.1458 167.068 24.6932 166.928 24.2955C166.791 23.8977 166.589 23.5833 166.32 23.3523C166.051 23.1212 165.716 23.0057 165.314 23.0057C164.909 23.0057 164.568 23.1212 164.291 23.3523C164.019 23.5833 163.812 23.8977 163.672 24.2955C163.536 24.6932 163.468 25.1458 163.468 25.6534C163.468 26.161 163.536 26.6136 163.672 27.0114C163.812 27.4091 164.019 27.7235 164.291 27.9545C164.568 28.1818 164.909 28.2955 165.314 28.2955ZM170.772 30V21.2727H173.079V22.8125H173.181C173.363 22.3011 173.666 21.8977 174.09 21.6023C174.515 21.3068 175.022 21.1591 175.613 21.1591C176.212 21.1591 176.721 21.3087 177.141 21.608C177.562 21.9034 177.842 22.3049 177.982 22.8125H178.073C178.251 22.3125 178.573 21.9129 179.039 21.6136C179.509 21.3106 180.064 21.1591 180.704 21.1591C181.518 21.1591 182.179 21.4186 182.687 21.9375C183.198 22.4527 183.454 23.1837 183.454 24.1307V30H181.039V24.608C181.039 24.1231 180.91 23.7595 180.653 23.517C180.395 23.2746 180.073 23.1534 179.687 23.1534C179.248 23.1534 178.905 23.2936 178.659 23.5739C178.412 23.8504 178.289 24.2159 178.289 24.6705V30H175.943V24.5568C175.943 24.1288 175.82 23.7879 175.573 23.5341C175.331 23.2803 175.011 23.1534 174.613 23.1534C174.344 23.1534 174.102 23.2216 173.886 23.358C173.674 23.4905 173.505 23.678 173.38 23.9205C173.255 24.1591 173.193 24.4394 173.193 24.7614V30H170.772Z" fill="#C9C7B3"/>
</svg>
