<svg width="183" height="48" viewBox="0 0 183 48" fill="none" xmlns="http://www.w3.org/2000/svg">
<rect x="3.75" y="3" width="12" height="12" fill="#7A7A7A"/>
<rect x="18" y="3" width="12" height="12" fill="#7A7A7A"/>
<rect x="32.25" y="3" width="12" height="12" fill="#7A7A7A"/>
<rect x="3.75" y="17.25" width="12" height="12" fill="#D0D0D0"/>
<rect x="18" y="17.25" width="12" height="12" fill="#7A7A7A"/>
<rect x="32.25" y="17.25" width="12" height="12" fill="#7A7A7A"/>
<rect x="3.75" y="31.5" width="12" height="12" fill="#D0D0D0"/>
<rect x="18" y="31.5" width="12" height="12" fill="#D0D0D0"/>
<rect x="32.25" y="31.5" width="12" height="12" fill="#7A7A7A"/>
<path d="M51.3864 24.9545V30H48.9659V21.2727H51.2727V22.8125H51.375C51.5682 22.3049 51.892 21.9034 52.3466 21.608C52.8011 21.3087 53.3523 21.1591 54 21.1591C54.6061 21.1591 55.1345 21.2917 55.5852 21.5568C56.036 21.822 56.3864 22.2008 56.6364 22.6932C56.8864 23.1818 57.0114 23.7652 57.0114 24.4432V30H54.5909V24.875C54.5947 24.3409 54.4583 23.9242 54.1818 23.625C53.9053 23.322 53.5246 23.1705 53.0398 23.1705C52.714 23.1705 52.4261 23.2405 52.1761 23.3807C51.9299 23.5208 51.7367 23.7254 51.5966 23.9943C51.4602 24.2595 51.3902 24.5795 51.3864 24.9545ZM62.4963 30.1705C61.5986 30.1705 60.8259 29.9886 60.1781 29.625C59.5342 29.2576 59.038 28.7386 58.6895 28.0682C58.341 27.3939 58.1668 26.5966 58.1668 25.6761C58.1668 24.7784 58.341 23.9905 58.6895 23.3125C59.038 22.6345 59.5285 22.1061 60.1611 21.7273C60.7974 21.3485 61.5437 21.1591 62.3997 21.1591C62.9755 21.1591 63.5115 21.2519 64.0077 21.4375C64.5077 21.6193 64.9433 21.8939 65.3145 22.2614C65.6895 22.6288 65.9812 23.0909 66.1895 23.6477C66.3978 24.2008 66.502 24.8485 66.502 25.5909V26.2557H59.1327V24.7557H64.2236C64.2236 24.4072 64.1478 24.0985 63.9963 23.8295C63.8448 23.5606 63.6346 23.3504 63.3656 23.1989C63.1005 23.0436 62.7918 22.9659 62.4395 22.9659C62.0721 22.9659 61.7463 23.0511 61.4622 23.2216C61.1819 23.3883 60.9622 23.6136 60.8031 23.8977C60.644 24.178 60.5626 24.4905 60.5588 24.8352V26.2614C60.5588 26.6932 60.6384 27.0663 60.7974 27.3807C60.9603 27.6951 61.1895 27.9375 61.4849 28.108C61.7804 28.2784 62.1308 28.3636 62.5361 28.3636C62.805 28.3636 63.0512 28.3258 63.2747 28.25C63.4982 28.1742 63.6895 28.0606 63.8486 27.9091C64.0077 27.7576 64.1289 27.572 64.2122 27.3523L66.4509 27.5C66.3372 28.0379 66.1043 28.5076 65.752 28.9091C65.4035 29.3068 64.9527 29.6174 64.3997 29.8409C63.8505 30.0606 63.216 30.1705 62.4963 30.1705ZM67.6815 30V21.2727H70.0281V22.7955H70.119C70.2781 22.2538 70.5452 21.8447 70.9202 21.5682C71.2952 21.2879 71.727 21.1477 72.2156 21.1477C72.3368 21.1477 72.4675 21.1553 72.6077 21.1705C72.7478 21.1856 72.8709 21.2064 72.977 21.233V23.3807C72.8634 23.3466 72.7062 23.3163 72.5054 23.2898C72.3046 23.2633 72.1209 23.25 71.9543 23.25C71.5982 23.25 71.28 23.3277 70.9997 23.483C70.7232 23.6345 70.5035 23.8466 70.3406 24.1193C70.1815 24.392 70.102 24.7064 70.102 25.0625V30H67.6815ZM76.6381 30.142C75.9752 30.142 75.3748 29.9716 74.8369 29.6307C74.3028 29.286 73.8786 28.7803 73.5642 28.1136C73.2536 27.4432 73.0983 26.6212 73.0983 25.6477C73.0983 24.6477 73.2593 23.8163 73.5812 23.1534C73.9032 22.4867 74.3312 21.9886 74.8653 21.6591C75.4032 21.3258 75.9922 21.1591 76.6324 21.1591C77.121 21.1591 77.5282 21.2424 77.854 21.4091C78.1835 21.572 78.4487 21.7765 78.6494 22.0227C78.854 22.2652 79.0093 22.5038 79.1153 22.7386H79.1892V18.3636H81.604V30H79.2176V28.6023H79.1153C79.0017 28.8447 78.8407 29.0852 78.6324 29.3239C78.4278 29.5587 78.1608 29.7538 77.8312 29.9091C77.5055 30.0644 77.1078 30.142 76.6381 30.142ZM77.4051 28.2159C77.7953 28.2159 78.1248 28.1098 78.3937 27.8977C78.6665 27.6818 78.8748 27.3807 79.0187 26.9943C79.1665 26.608 79.2403 26.1553 79.2403 25.6364C79.2403 25.1174 79.1684 24.6667 79.0244 24.2841C78.8805 23.9015 78.6722 23.6061 78.3994 23.3977C78.1267 23.1894 77.7953 23.0852 77.4051 23.0852C77.0074 23.0852 76.6722 23.1932 76.3994 23.4091C76.1267 23.625 75.9203 23.9242 75.7801 24.3068C75.64 24.6894 75.5699 25.1326 75.5699 25.6364C75.5699 26.1439 75.64 26.5928 75.7801 26.983C75.9241 27.3693 76.1305 27.6723 76.3994 27.892C76.6722 28.108 77.0074 28.2159 77.4051 28.2159ZM84.6884 33.2727C84.3815 33.2727 84.0937 33.2481 83.8247 33.1989C83.5596 33.1534 83.3399 33.0947 83.1656 33.0227L83.7111 31.2159C83.9952 31.303 84.2509 31.3504 84.4781 31.358C84.7092 31.3655 84.9081 31.3125 85.0747 31.1989C85.2452 31.0852 85.3834 30.892 85.4895 30.6193L85.6315 30.25L82.5009 21.2727H85.0463L86.8531 27.6818H86.944L88.7679 21.2727H91.3304L87.9384 30.9432C87.7755 31.4129 87.5539 31.822 87.2736 32.1705C86.9971 32.5227 86.6467 32.7936 86.2224 32.983C85.7982 33.1761 85.2868 33.2727 84.6884 33.2727ZM94.3622 27.4886L94.3679 24.5852H94.7202L97.5156 21.2727H100.294L96.5384 25.6591H95.9645L94.3622 27.4886ZM92.169 30V18.3636H94.5895V30H92.169ZM97.6236 30L95.0554 26.1989L96.669 24.4886L100.459 30H97.6236ZM103.502 24.9545V30H101.082V21.2727H103.388V22.8125H103.491C103.684 22.3049 104.008 21.9034 104.462 21.608C104.917 21.3087 105.468 21.1591 106.116 21.1591C106.722 21.1591 107.25 21.2917 107.701 21.5568C108.152 21.822 108.502 22.2008 108.752 22.6932C109.002 23.1818 109.127 23.7652 109.127 24.4432V30H106.707V24.875C106.71 24.3409 106.574 23.9242 106.297 23.625C106.021 23.322 105.64 23.1705 105.155 23.1705C104.83 23.1705 104.542 23.2405 104.292 23.3807C104.046 23.5208 103.852 23.7254 103.712 23.9943C103.576 24.2595 103.506 24.5795 103.502 24.9545ZM113.123 30.1648C112.566 30.1648 112.07 30.0682 111.635 29.875C111.199 29.678 110.854 29.3883 110.601 29.0057C110.351 28.6193 110.226 28.1383 110.226 27.5625C110.226 27.0777 110.315 26.6705 110.493 26.3409C110.671 26.0114 110.913 25.7462 111.22 25.5455C111.527 25.3447 111.875 25.1932 112.265 25.0909C112.659 24.9886 113.072 24.9167 113.504 24.875C114.012 24.822 114.421 24.7727 114.731 24.7273C115.042 24.678 115.267 24.6061 115.407 24.5114C115.548 24.4167 115.618 24.2765 115.618 24.0909V24.0568C115.618 23.697 115.504 23.4186 115.277 23.2216C115.053 23.0246 114.735 22.9261 114.322 22.9261C113.887 22.9261 113.54 23.0227 113.282 23.2159C113.025 23.4053 112.854 23.6439 112.771 23.9318L110.532 23.75C110.646 23.2197 110.87 22.7614 111.203 22.375C111.536 21.9848 111.966 21.6856 112.493 21.4773C113.023 21.2652 113.637 21.1591 114.334 21.1591C114.818 21.1591 115.282 21.2159 115.726 21.3295C116.173 21.4432 116.568 21.6193 116.913 21.858C117.262 22.0966 117.536 22.4034 117.737 22.7784C117.938 23.1496 118.038 23.5947 118.038 24.1136V30H115.743V28.7898H115.674C115.534 29.0625 115.347 29.303 115.112 29.5114C114.877 29.7159 114.595 29.8769 114.265 29.9943C113.936 30.108 113.555 30.1648 113.123 30.1648ZM113.816 28.4943C114.173 28.4943 114.487 28.4242 114.76 28.2841C115.032 28.1402 115.246 27.947 115.402 27.7045C115.557 27.4621 115.635 27.1875 115.635 26.8807V25.9545C115.559 26.0038 115.455 26.0492 115.322 26.0909C115.193 26.1288 115.048 26.1648 114.885 26.1989C114.722 26.2292 114.559 26.2576 114.396 26.2841C114.233 26.3068 114.085 26.3277 113.953 26.3466C113.669 26.3883 113.421 26.4545 113.209 26.5455C112.996 26.6364 112.832 26.7595 112.714 26.9148C112.597 27.0663 112.538 27.2557 112.538 27.483C112.538 27.8125 112.657 28.0644 112.896 28.2386C113.138 28.4091 113.445 28.4943 113.816 28.4943ZM123.459 30.1705C122.565 30.1705 121.796 29.9811 121.152 29.6023C120.512 29.2197 120.02 28.6894 119.675 28.0114C119.334 27.3333 119.164 26.553 119.164 25.6705C119.164 24.7765 119.336 23.9924 119.681 23.3182C120.029 22.6402 120.523 22.1117 121.164 21.733C121.804 21.3504 122.565 21.1591 123.448 21.1591C124.209 21.1591 124.876 21.2973 125.448 21.5739C126.02 21.8504 126.472 22.2386 126.806 22.7386C127.139 23.2386 127.323 23.8258 127.357 24.5H125.073C125.008 24.0644 124.838 23.714 124.561 23.4489C124.289 23.1799 123.931 23.0455 123.488 23.0455C123.113 23.0455 122.785 23.1477 122.505 23.3523C122.228 23.553 122.012 23.8466 121.857 24.233C121.702 24.6193 121.624 25.0871 121.624 25.6364C121.624 26.1932 121.7 26.6667 121.851 27.0568C122.006 27.447 122.224 27.7443 122.505 27.9489C122.785 28.1534 123.113 28.2557 123.488 28.2557C123.764 28.2557 124.012 28.1989 124.232 28.0852C124.455 27.9716 124.639 27.8068 124.783 27.5909C124.931 27.3712 125.027 27.108 125.073 26.8011H127.357C127.319 27.4678 127.137 28.0549 126.811 28.5625C126.489 29.0663 126.044 29.4602 125.476 29.7443C124.908 30.0284 124.236 30.1705 123.459 30.1705ZM130.7 27.4886L130.705 24.5852H131.058L133.853 21.2727H136.632L132.876 25.6591H132.302L130.7 27.4886ZM128.507 30V18.3636H130.927V30H128.507ZM133.961 30L131.393 26.1989L133.007 24.4886L136.796 30H133.961ZM144.68 23.7614L142.464 23.8977C142.427 23.7083 142.345 23.5379 142.22 23.3864C142.095 23.2311 141.93 23.108 141.726 23.017C141.525 22.9223 141.285 22.875 141.004 22.875C140.629 22.875 140.313 22.9545 140.055 23.1136C139.798 23.2689 139.669 23.4773 139.669 23.7386C139.669 23.947 139.752 24.1231 139.919 24.267C140.086 24.411 140.372 24.5265 140.777 24.6136L142.357 24.9318C143.205 25.1061 143.838 25.3864 144.254 25.7727C144.671 26.1591 144.879 26.6667 144.879 27.2955C144.879 27.8674 144.711 28.3693 144.374 28.8011C144.04 29.233 143.582 29.5701 142.999 29.8125C142.419 30.0511 141.75 30.1705 140.993 30.1705C139.838 30.1705 138.917 29.9299 138.232 29.4489C137.55 28.964 137.15 28.3049 137.033 27.4716L139.413 27.3466C139.485 27.6989 139.66 27.9678 139.936 28.1534C140.213 28.3352 140.567 28.4261 140.999 28.4261C141.423 28.4261 141.764 28.3447 142.021 28.1818C142.283 28.0152 142.415 27.8011 142.419 27.5398C142.415 27.3201 142.322 27.1402 142.141 27C141.959 26.8561 141.679 26.7462 141.3 26.6705L139.788 26.3693C138.936 26.1989 138.302 25.9034 137.885 25.483C137.472 25.0625 137.266 24.5265 137.266 23.875C137.266 23.3144 137.417 22.8314 137.72 22.4261C138.027 22.0208 138.457 21.7083 139.01 21.4886C139.567 21.2689 140.218 21.1591 140.964 21.1591C142.067 21.1591 142.934 21.392 143.567 21.858C144.203 22.3239 144.574 22.9583 144.68 23.7614ZM147.418 30.1477C147.043 30.1477 146.721 30.0152 146.452 29.75C146.187 29.4811 146.055 29.1591 146.055 28.7841C146.055 28.4129 146.187 28.0947 146.452 27.8295C146.721 27.5644 147.043 27.4318 147.418 27.4318C147.782 27.4318 148.1 27.5644 148.373 27.8295C148.645 28.0947 148.782 28.4129 148.782 28.7841C148.782 29.0341 148.717 29.2633 148.589 29.4716C148.464 29.6761 148.299 29.8409 148.094 29.9659C147.89 30.0871 147.664 30.1477 147.418 30.1477ZM154.312 30.1705C153.418 30.1705 152.649 29.9811 152.005 29.6023C151.365 29.2197 150.873 28.6894 150.528 28.0114C150.187 27.3333 150.017 26.553 150.017 25.6705C150.017 24.7765 150.189 23.9924 150.534 23.3182C150.882 22.6402 151.377 22.1117 152.017 21.733C152.657 21.3504 153.418 21.1591 154.301 21.1591C155.062 21.1591 155.729 21.2973 156.301 21.5739C156.873 21.8504 157.325 22.2386 157.659 22.7386C157.992 23.2386 158.176 23.8258 158.21 24.5H155.926C155.861 24.0644 155.691 23.714 155.414 23.4489C155.142 23.1799 154.784 23.0455 154.341 23.0455C153.966 23.0455 153.638 23.1477 153.358 23.3523C153.081 23.553 152.865 23.8466 152.71 24.233C152.555 24.6193 152.477 25.0871 152.477 25.6364C152.477 26.1932 152.553 26.6667 152.704 27.0568C152.86 27.447 153.077 27.7443 153.358 27.9489C153.638 28.1534 153.966 28.2557 154.341 28.2557C154.617 28.2557 154.865 28.1989 155.085 28.0852C155.308 27.9716 155.492 27.8068 155.636 27.5909C155.784 27.3712 155.88 27.108 155.926 26.8011H158.21C158.172 27.4678 157.99 28.0549 157.664 28.5625C157.343 29.0663 156.897 29.4602 156.329 29.7443C155.761 30.0284 155.089 30.1705 154.312 30.1705ZM163.303 30.1705C162.42 30.1705 161.657 29.983 161.013 29.608C160.373 29.2292 159.879 28.7027 159.53 28.0284C159.182 27.3504 159.007 26.5644 159.007 25.6705C159.007 24.7689 159.182 23.9811 159.53 23.3068C159.879 22.6288 160.373 22.1023 161.013 21.7273C161.657 21.3485 162.42 21.1591 163.303 21.1591C164.185 21.1591 164.947 21.3485 165.587 21.7273C166.231 22.1023 166.727 22.6288 167.076 23.3068C167.424 23.9811 167.598 24.7689 167.598 25.6705C167.598 26.5644 167.424 27.3504 167.076 28.0284C166.727 28.7027 166.231 29.2292 165.587 29.608C164.947 29.983 164.185 30.1705 163.303 30.1705ZM163.314 28.2955C163.716 28.2955 164.051 28.1818 164.32 27.9545C164.589 27.7235 164.791 27.4091 164.928 27.0114C165.068 26.6136 165.138 26.161 165.138 25.6534C165.138 25.1458 165.068 24.6932 164.928 24.2955C164.791 23.8977 164.589 23.5833 164.32 23.3523C164.051 23.1212 163.716 23.0057 163.314 23.0057C162.909 23.0057 162.568 23.1212 162.291 23.3523C162.019 23.5833 161.812 23.8977 161.672 24.2955C161.536 24.6932 161.468 25.1458 161.468 25.6534C161.468 26.161 161.536 26.6136 161.672 27.0114C161.812 27.4091 162.019 27.7235 162.291 27.9545C162.568 28.1818 162.909 28.2955 163.314 28.2955ZM168.772 30V21.2727H171.079V22.8125H171.181C171.363 22.3011 171.666 21.8977 172.09 21.6023C172.515 21.3068 173.022 21.1591 173.613 21.1591C174.212 21.1591 174.721 21.3087 175.141 21.608C175.562 21.9034 175.842 22.3049 175.982 22.8125H176.073C176.251 22.3125 176.573 21.9129 177.039 21.6136C177.509 21.3106 178.064 21.1591 178.704 21.1591C179.518 21.1591 180.179 21.4186 180.687 21.9375C181.198 22.4527 181.454 23.1837 181.454 24.1307V30H179.039V24.608C179.039 24.1231 178.91 23.7595 178.653 23.517C178.395 23.2746 178.073 23.1534 177.687 23.1534C177.248 23.1534 176.905 23.2936 176.659 23.5739C176.412 23.8504 176.289 24.2159 176.289 24.6705V30H173.943V24.5568C173.943 24.1288 173.82 23.7879 173.573 23.5341C173.331 23.2803 173.011 23.1534 172.613 23.1534C172.344 23.1534 172.102 23.2216 171.886 23.358C171.674 23.4905 171.505 23.678 171.38 23.9205C171.255 24.1591 171.193 24.4394 171.193 24.7614V30H168.772Z" fill="#C9C7B3"/>
</svg>
